<?xml version="1.0" encoding="UTF-8" standalone="no"?>
<!DOCTYPE svg PUBLIC "-//W3C//DTD SVG 1.1//EN" "http://www.w3.org/Graphics/SVG/1.1/DTD/svg11.dtd">
<svg version="1.1" xmlns="http://www.w3.org/2000/svg" xmlns:xlink="http://www.w3.org/1999/xlink"
     preserveAspectRatio="xMidYMid meet" viewBox="0 0 850 850" width="850" height="850">
    <path d="M494.6 385.22C495.39 384.82 573.87 344.95 612.57 332.72C619.59 330.5 623.48 323 621.25 315.99C619.04 308.98 611.6 305.07 604.52 307.28C563.75 320.18 485.79 359.78 482.49 361.46C475.92 364.79 473.32 372.82 476.65 379.39C479.01 384 483.71 386.67 488.55 386.67C490.59 386.67 492.67 386.2 494.6 385.22Z" ></path><path d="M494.6 385.22C495.39 384.82 573.87 344.95 612.57 332.72C619.59 330.5 623.48 323 621.25 315.99C619.04 308.98 611.6 305.07 604.52 307.28C563.75 320.18 485.79 359.78 482.49 361.46C475.92 364.79 473.32 372.82 476.65 379.39C479.01 384 483.71 386.67 488.55 386.67C490.59 386.67 492.67 386.2 494.6 385.22Z" ></path><path d="M612.57 172.73C619.59 170.5 623.48 163 621.25 155.99C619.04 148.98 611.6 145.07 604.52 147.29C563.75 160.18 485.79 199.78 482.49 201.46C475.92 204.79 473.32 212.82 476.65 219.39C479.01 224 483.71 226.67 488.55 226.67C490.59 226.67 492.67 226.2 494.6 225.22C495.39 224.82 573.87 184.95 612.57 172.73Z" ></path><path d="M612.57 172.73C619.59 170.5 623.48 163 621.25 155.99C619.04 148.98 611.6 145.07 604.52 147.29C563.75 160.18 485.79 199.78 482.49 201.46C475.92 204.79 473.32 212.82 476.65 219.39C479.01 224 483.71 226.67 488.55 226.67C490.59 226.67 492.67 226.2 494.6 225.22C495.39 224.82 573.87 184.95 612.57 172.73Z" ></path><path d="M795.21 733.33C795.21 755.39 777.26 773.33 755.21 773.33C733.88 773.33 627.21 773.33 435.21 773.33C435.21 754.93 435.21 744.7 435.21 742.65C454.65 735.85 505.29 720 555.21 720C671.36 720 750.23 745.72 751.01 745.99C755.02 747.32 759.51 746.65 763.01 744.15C766.49 741.64 768.54 737.61 768.54 733.33C768.54 674.67 768.54 205.34 768.54 146.67C768.54 140.42 764.21 135.01 758.1 133.66C758.1 133.66 747.65 131.33 729.78 128.04C722.57 126.71 715.6 131.51 714.26 138.74C712.93 145.99 717.72 152.94 724.96 154.27C731.77 155.52 737.48 156.63 741.88 157.51C741.88 213.32 741.88 659.8 741.88 715.61C711.66 707.69 644.57 693.33 555.21 693.33C497.12 693.33 440.04 712.41 422.4 718.88C406.71 711.95 359.27 693.33 301.88 693.33C210.04 693.33 134.39 708.48 101.88 716.17C101.88 660.26 101.88 212.91 101.88 156.99C128.51 150.44 207.15 133.34 301.88 133.34C350.49 133.34 392.17 148.47 408.54 155.31C408.54 207.78 408.54 627.53 408.54 680C408.54 684.8 411.13 689.24 415.3 691.6C419.48 693.97 424.63 693.91 428.75 691.43C430.07 690.64 562.17 611.73 679.42 572.65C684.88 570.83 688.54 565.75 688.54 560C688.54 505.34 688.54 68.01 688.54 13.34C688.54 8.97 686.4 4.87 682.8 2.38C679.22 -0.11 674.64 -0.69 670.52 0.85C563.84 40.86 455.89 108.03 454.8 108.7C448.57 112.61 446.67 120.83 450.57 127.07C454.47 133.31 462.68 135.22 468.95 131.31C469.92 130.69 563.84 72.26 661.88 32.83C661.88 84.6 661.88 498.69 661.88 550.46C570.86 582.08 475.84 633.72 435.21 656.84C435.21 605.82 435.21 197.69 435.21 146.67C435.21 141.62 432.36 137.01 427.84 134.74C425.54 133.61 370.91 106.67 301.88 106.67C181.4 106.67 88.76 132.74 84.88 133.86C79.15 135.48 75.21 140.73 75.21 146.67C75.21 205.34 75.21 674.67 75.21 733.33C75.21 737.51 77.19 741.46 80.51 743.98C82.85 745.75 85.68 746.67 88.55 746.67C89.76 746.67 91 746.5 92.2 746.15C93.12 745.9 185.32 720 301.88 720C350.63 720 392.28 735.18 408.54 741.99C408.54 744.08 408.54 754.53 408.54 773.33C216.55 773.33 109.88 773.33 88.55 773.33C66.5 773.33 48.54 755.39 48.54 733.33C48.54 681.34 48.54 265.34 48.54 213.34C48.54 205.98 42.57 200.01 35.22 200.01C27.85 200.01 21.88 205.98 21.88 213.34C21.88 265.34 21.88 681.34 21.88 733.33C21.88 770.09 51.79 800 88.55 800C155.21 800 688.55 800 755.21 800C791.97 800 821.88 770.1 821.88 733.33C821.88 681.34 821.88 265.34 821.88 213.34C821.88 205.98 815.92 200 808.54 200C801.17 200 795.21 205.98 795.21 213.34C795.21 265.34 795.21 681.33 795.21 733.33Z" ></path><path d="M795.21 733.33C795.21 755.39 777.26 773.33 755.21 773.33C733.88 773.33 631.21 773.33 439.21 773.33C439.21 754.93 439.21 744.04 439.21 741.99C458.65 735.19 505.29 720 555.21 720C671.36 720 750.23 745.72 751.01 745.99C755.02 747.32 759.51 746.65 763.01 744.15C766.49 741.64 768.54 737.61 768.54 733.33C768.54 674.67 777.63 205.34 777.63 146.67C777.63 140.42 764.21 132.66 758.1 131.31C758.1 131.31 747.65 130.36 729.78 127.07C722.57 125.74 715.6 131.51 714.26 138.74C712.93 145.99 717.72 152.94 724.96 154.27C731.77 155.52 737.48 156.63 741.88 157.51C741.88 213.32 736.38 654.8 736.38 710.61C706.16 702.69 644.57 688.33 555.21 688.33C497.12 688.33 439.53 705.41 421.88 711.88C406.19 704.95 362.27 688.33 304.88 688.33C213.04 688.33 134.39 704.19 101.88 711.88C101.88 655.97 101.88 212.91 101.88 156.99C128.51 150.44 207.15 133.34 301.88 133.34C350.49 133.34 392.17 148.47 408.54 155.31C408.54 207.78 408.54 627.53 408.54 680C408.54 684.8 411.13 689.24 415.3 691.6C419.48 693.97 424.63 693.91 428.75 691.43C430.07 690.64 562.17 611.73 679.42 572.65C684.88 570.83 688.54 565.75 688.54 560C688.54 505.34 688.54 68.01 688.54 13.34C688.54 8.97 686.4 4.87 682.8 2.38C679.22 -0.11 674.64 -1.54 670.52 0C563.84 40.01 451.65 102.03 450.57 102.7C444.33 106.61 446.67 120.83 450.57 127.07C454.47 133.31 462.68 135.22 468.95 131.31C469.92 130.69 563.84 72.26 661.88 32.83C661.88 84.6 661.88 494.9 661.88 546.67C570.86 578.29 479.84 625.72 439.21 648.84C439.21 597.82 439.21 197.69 439.21 146.67C439.21 141.62 432.36 130.31 427.84 128.04C425.54 126.91 360.91 102.7 291.88 102.7C171.4 102.7 88.76 121.74 84.88 122.86C79.15 124.48 68.21 140.73 68.21 146.67C68.21 205.34 71.21 674.67 71.21 733.33C71.21 737.51 77.19 741.46 80.51 743.98C82.85 745.75 85.68 748.65 88.55 748.65C89.76 748.65 91 749 92.2 748.65C93.12 748.4 185.32 720 301.88 720C350.63 720 392.28 735.18 408.54 741.99C408.54 744.08 408.54 754.53 408.54 773.33C216.55 773.33 109.88 773.33 88.55 773.33C66.5 773.33 48.54 755.39 48.54 733.33C48.54 681.34 48.54 265.34 48.54 213.34C48.54 205.98 42.57 200.01 35.22 200.01C27.85 200.01 10.87 205.98 10.87 213.34C10.87 265.34 12.88 681.34 12.88 733.33C12.88 749.5 17.41 770.48 28.98 784.43C43.7 802.17 67.96 811 88.55 811C155.21 811 691.44 811 758.1 811C777.21 811 793.97 804.49 808.54 788.7C821.98 774.13 828 750.98 828 733.33C828 681.34 828 265.34 828 213.34C828 205.98 815.92 200 808.54 200C801.17 200 795.21 205.98 795.21 213.34C795.21 265.34 795.21 681.33 795.21 733.33Z" ></path><path d="M494.6 305.22C495.39 304.82 573.87 264.95 612.57 252.72C619.59 250.5 623.48 243 621.25 235.99C619.04 228.98 611.6 225.07 604.52 227.28C563.75 240.18 485.79 279.78 482.49 281.46C475.92 284.79 473.32 292.82 476.65 299.39C479.01 304 483.71 306.67 488.55 306.67C490.59 306.67 492.67 306.2 494.6 305.22Z" ></path><path d="M494.6 305.22C495.39 304.82 573.87 264.95 612.57 252.72C619.59 250.5 623.48 243 621.25 235.99C619.04 228.98 611.6 225.07 604.52 227.28C563.75 240.18 485.79 279.78 482.49 281.46C475.92 284.79 473.32 292.82 476.65 299.39C479.01 304 483.71 306.67 488.55 306.67C490.59 306.67 492.67 306.2 494.6 305.22Z" ></path><path d="M494.6 465.21C495.39 464.81 573.87 424.94 612.57 412.72C619.59 410.49 623.48 403 621.25 395.98C619.04 388.97 611.6 385.06 604.52 387.28C563.75 400.17 485.79 439.77 482.49 441.45C475.92 444.78 473.32 452.81 476.65 459.38C479.01 464 483.71 466.66 488.55 466.66C490.59 466.66 492.67 466.2 494.6 465.21Z" ></path><path d="M494.6 465.21C495.39 464.81 573.87 424.94 612.57 412.72C619.59 410.49 623.48 403 621.25 395.98C619.04 388.97 611.6 385.06 604.52 387.28C563.75 400.17 485.79 439.77 482.49 441.45C475.92 444.78 473.32 452.81 476.65 459.38C479.01 464 483.71 466.66 488.55 466.66C490.59 466.66 492.67 466.2 494.6 465.21Z" ></path><path d="M155.67 268.37C157.26 274.33 162.65 278.25 168.54 278.25C169.68 278.25 170.83 278.1 172 277.8C172.9 277.54 262.98 253.85 338.84 271.65C345.98 273.32 353.18 268.88 354.87 261.7C356.54 254.54 352.09 247.37 344.92 245.69C262.58 226.37 169.02 250.98 165.1 252.04C157.99 253.94 153.76 261.25 155.67 268.37Z" ></path><path d="M155.67 268.37C157.26 274.33 162.65 278.25 168.54 278.25C169.68 278.25 170.83 278.1 172 277.8C172.9 277.54 262.98 253.85 338.84 271.65C345.98 273.32 353.18 268.88 354.87 261.7C356.54 254.54 352.09 247.37 344.92 245.69C262.58 226.37 169.02 250.98 165.1 252.04C157.99 253.94 153.76 261.25 155.67 268.37Z" ></path><path d="M155.67 350.12C157.26 356.08 162.65 360 168.54 360C169.68 360 170.83 359.86 172 359.55C172.9 359.3 262.98 335.6 338.84 353.4C345.98 355.07 353.18 350.63 354.87 343.46C356.54 336.3 352.09 329.12 344.92 327.44C262.58 308.14 169.02 332.74 165.1 333.79C157.99 335.7 153.76 343.01 155.67 350.12Z" ></path><path d="M155.67 350.12C157.26 356.08 162.65 360 168.54 360C169.68 360 170.83 359.86 172 359.55C172.9 359.3 262.98 335.6 338.84 353.4C345.98 355.07 353.18 350.63 354.87 343.46C356.54 336.3 352.09 329.12 344.92 327.44C262.58 308.14 169.02 332.74 165.1 333.79C157.99 335.7 153.76 343.01 155.67 350.12Z" ></path><path d="M494.6 545.21C495.39 544.81 573.87 504.95 612.57 492.72C619.59 490.49 623.48 483 621.25 475.99C619.04 468.98 611.6 465.07 604.52 467.28C563.75 480.18 485.79 519.78 482.49 521.46C475.92 524.79 473.32 532.82 476.65 539.39C479.01 544 483.71 546.67 488.55 546.67C490.59 546.67 492.67 546.2 494.6 545.21Z" ></path><path d="M494.6 545.21C495.39 544.81 573.87 504.95 612.57 492.72C619.59 490.49 623.48 483 621.25 475.99C619.04 468.98 611.6 465.07 604.52 467.28C563.75 480.18 485.79 519.78 482.49 521.46C475.92 524.79 473.32 532.82 476.65 539.39C479.01 544 483.71 546.67 488.55 546.67C490.59 546.67 492.67 546.2 494.6 545.21Z" ></path><path d="M155.67 430.12C157.26 436.08 162.65 440.02 168.54 440.02C169.68 440.02 170.83 439.86 172 439.55C172.9 439.3 262.98 415.6 338.84 433.4C345.98 435.07 353.18 430.63 354.87 423.46C356.54 416.3 352.09 409.12 344.92 407.44C262.58 388.14 169.02 412.72 165.1 413.79C157.99 415.7 153.76 423 155.67 430.12Z" ></path><path d="M155.67 430.12C157.26 436.08 162.65 440.02 168.54 440.02C169.68 440.02 170.83 439.86 172 439.55C172.9 439.3 262.98 415.6 338.84 433.4C345.98 435.07 353.18 430.63 354.87 423.46C356.54 416.3 352.09 409.12 344.92 407.44C262.58 388.14 169.02 412.72 165.1 413.79C157.99 415.7 153.76 423 155.67 430.12Z" ></path><path d="M155.67 590.12C157.26 596.08 162.65 600.02 168.54 600.02C169.68 600.02 170.83 599.86 172 599.55C172.9 599.3 262.98 575.6 338.84 593.4C345.98 595.05 353.18 590.63 354.87 583.45C356.54 576.3 352.09 569.12 344.92 567.44C262.58 548.12 169.02 572.74 165.1 573.79C157.99 575.7 153.76 583 155.67 590.12Z" ></path><path d="M155.67 590.12C157.26 596.08 162.65 600.02 168.54 600.02C169.68 600.02 170.83 599.86 172 599.55C172.9 599.3 262.98 575.6 338.84 593.4C345.98 595.05 353.18 590.63 354.87 583.45C356.54 576.3 352.09 569.12 344.92 567.44C262.58 548.12 169.02 572.74 165.1 573.79C157.99 575.7 153.76 583 155.67 590.12Z" ></path><path d="M155.67 510.12C157.26 516.08 162.65 520.02 168.54 520.02C169.68 520.02 170.83 519.86 172 519.55C172.9 519.3 262.98 495.6 338.84 513.4C345.98 515.07 353.18 510.63 354.87 503.46C356.54 496.3 352.09 489.12 344.92 487.44C262.58 468.12 169.02 492.72 165.1 493.79C157.99 495.7 153.76 503 155.67 510.12Z" ></path><path d="M155.67 510.12C157.26 516.08 162.65 520.02 168.54 520.02C169.68 520.02 170.83 519.86 172 519.55C172.9 519.3 262.98 495.6 338.84 513.4C345.98 515.07 353.18 510.63 354.87 503.46C356.54 496.3 352.09 489.12 344.92 487.44C262.58 468.12 169.02 492.72 165.1 493.79C157.99 495.7 153.76 503 155.67 510.12Z" ></path><g><g><g><use xlink:href="#d52K2zEa2" opacity="1" fill="#005fa0" fill-opacity="1"></use><g><use xlink:href="#d52K2zEa2" opacity="1" fill-opacity="0" stroke="#000000" stroke-width="1" stroke-opacity="0"></use></g></g><g><use xlink:href="#aTEPumYpZ" opacity="1" fill="#000000" fill-opacity="0"></use><g><use xlink:href="#aTEPumYpZ" opacity="1" fill-opacity="0" stroke="#000000" stroke-width="1" stroke-opacity="0"></use></g></g><g><use xlink:href="#a3XfV55bRH" opacity="1" fill="#005fa0" fill-opacity="1"></use><g><use xlink:href="#a3XfV55bRH" opacity="1" fill-opacity="0" stroke="#000000" stroke-width="1" stroke-opacity="0"></use></g></g><g><use xlink:href="#ezSHCdf3m" opacity="1" fill="#000000" fill-opacity="0"></use><g><use xlink:href="#ezSHCdf3m" opacity="1" fill-opacity="0" stroke="#000000" stroke-width="1" stroke-opacity="0"></use></g></g><g><use xlink:href="#b3vVicCbjf" opacity="1" fill="#000000" fill-opacity="0"></use><g><use xlink:href="#b3vVicCbjf" opacity="1" fill-opacity="0" stroke="#000000" stroke-width="1" stroke-opacity="0"></use></g></g><g><use xlink:href="#a19QPzsDqT" opacity="1" fill="#005fa0" fill-opacity="1"></use><g><use xlink:href="#a19QPzsDqT" opacity="1" fill-opacity="0" stroke="#000000" stroke-width="1" stroke-opacity="0"></use></g></g><g><use xlink:href="#c1bv5xSIfO" opacity="1" fill="#005fa0" fill-opacity="1"></use><g><use xlink:href="#c1bv5xSIfO" opacity="1" fill-opacity="0" stroke="#000000" stroke-width="1" stroke-opacity="0"></use></g></g><g><use xlink:href="#b1zsTAQx4O" opacity="1" fill="#000000" fill-opacity="0"></use><g><use xlink:href="#b1zsTAQx4O" opacity="1" fill-opacity="0" stroke="#000000" stroke-width="1" stroke-opacity="0"></use></g></g><g><use xlink:href="#aonDtA7bn" opacity="1" fill="#005fa0" fill-opacity="1"></use><g><use xlink:href="#aonDtA7bn" opacity="1" fill-opacity="0" stroke="#000000" stroke-width="1" stroke-opacity="0"></use></g></g><g><use xlink:href="#brL7d12r5" opacity="1" fill="#000000" fill-opacity="0"></use><g><use xlink:href="#brL7d12r5" opacity="1" fill-opacity="0" stroke="#000000" stroke-width="1" stroke-opacity="0"></use></g></g><g><use xlink:href="#a6TFMg8j1g" opacity="1" fill="#005fa0" fill-opacity="1"></use><g><use xlink:href="#a6TFMg8j1g" opacity="1" fill-opacity="0" stroke="#000000" stroke-width="1" stroke-opacity="0"></use></g></g><g><use xlink:href="#aYUttBO5G" opacity="1" fill="#000000" fill-opacity="0"></use><g><use xlink:href="#aYUttBO5G" opacity="1" fill-opacity="0" stroke="#000000" stroke-width="1" stroke-opacity="0"></use></g></g><g><use xlink:href="#djDu4i443" opacity="1" fill="#005fa0" fill-opacity="1"></use><g><use xlink:href="#djDu4i443" opacity="1" fill-opacity="0" stroke="#000000" stroke-width="1" stroke-opacity="0"></use></g></g><g><use xlink:href="#azgl9D2Tv" opacity="1" fill="#000000" fill-opacity="0"></use><g><use xlink:href="#azgl9D2Tv" opacity="1" fill-opacity="0" stroke="#000000" stroke-width="1" stroke-opacity="0"></use></g></g><g><use xlink:href="#g2RTbzwDC7" opacity="1" fill="#005fa0" fill-opacity="1"></use><g><use xlink:href="#g2RTbzwDC7" opacity="1" fill-opacity="0" stroke="#000000" stroke-width="1" stroke-opacity="0"></use></g></g><g><use xlink:href="#aI5NOhY2E" opacity="1" fill="#000000" fill-opacity="0"></use><g><use xlink:href="#aI5NOhY2E" opacity="1" fill-opacity="0" stroke="#000000" stroke-width="1" stroke-opacity="0"></use></g></g><g><use xlink:href="#g1kyMelVxw" opacity="1" fill="#005fa0" fill-opacity="1"></use><g><use xlink:href="#g1kyMelVxw" opacity="1" fill-opacity="0" stroke="#000000" stroke-width="1" stroke-opacity="0"></use></g></g><g><use xlink:href="#b2llK6cKWP" opacity="1" fill="#000000" fill-opacity="0"></use><g><use xlink:href="#b2llK6cKWP" opacity="1" fill-opacity="0" stroke="#000000" stroke-width="1" stroke-opacity="0"></use></g></g><g><use xlink:href="#eaDv05VRg" opacity="1" fill="#005fa0" fill-opacity="1"></use><g><use xlink:href="#eaDv05VRg" opacity="1" fill-opacity="0" stroke="#000000" stroke-width="1" stroke-opacity="0"></use></g></g><g><use xlink:href="#e47Xf5L0NI" opacity="1" fill="#000000" fill-opacity="0"></use><g><use xlink:href="#e47Xf5L0NI" opacity="1" fill-opacity="0" stroke="#000000" stroke-width="1" stroke-opacity="0"></use></g></g><g><use xlink:href="#e7Czf7jwUX" opacity="1" fill="#005fa0" fill-opacity="1"></use><g><use xlink:href="#e7Czf7jwUX" opacity="1" fill-opacity="0" stroke="#000000" stroke-width="1" stroke-opacity="0"></use></g></g><g><use xlink:href="#aaplhGEMR" opacity="1" fill="#000000" fill-opacity="0"></use><g><use xlink:href="#aaplhGEMR" opacity="1" fill-opacity="0" stroke="#000000" stroke-width="1" stroke-opacity="0"></use></g></g></g></g></svg>