<svg height="512pt" viewBox="0 0 512.001 512" width="512pt" xmlns="http://www.w3.org/2000/svg"><path d="M10 234.438C22.234 247.69 39.742 256 59.2 256s36.968-8.309 49.202-21.563c12.23 13.254 29.743 21.563 49.2 21.563 19.457 0 36.968-8.309 49.199-21.563C219.03 247.691 236.543 256 256 256s36.969-8.309 49.2-21.563C317.433 247.691 334.944 256 354.401 256s36.97-8.309 49.2-21.563C415.832 247.691 433.344 256 452.8 256s36.969-8.309 49.199-21.563V502H10zm0 0" fill="#c9f3ff"/><path d="M328.29 183.715L428.468 325.19c8.844 12.493 7.398 29.543-3.426 40.368l-50.438 50.437c-10.824 10.824-27.875 12.274-40.367 3.426l-141.476-100.18zm0 0" fill="#72d8ff"/><path d="M328.055 212.234l-107.48 107.48c-7.813 7.81-20.477 7.81-28.286 0-7.809-7.812-7.809-20.476 0-28.284l107.48-107.48c7.81-7.81 20.473-7.81 28.286 0 7.808 7.808 7.808 20.472 0 28.284zm0 0" fill="#c9f3ff"/><path d="M35.332 431.883l-20.129-20.125c-6.937-6.942-6.937-18.192 0-25.13l42.754-42.753c6.941-6.938 18.191-6.938 25.129 0L103.215 364c6.937 6.941 6.937 18.191 0 25.129L60.46 431.883c-6.941 6.937-18.191 6.937-25.129 0zm0 0" fill="#ffc66c"/><path d="M118.145 339.332l-10.391-10.39a6.884 6.884 0 0 0-9.734 0l-14.93 14.933L103.215 364l14.93-14.93a6.889 6.889 0 0 0 0-9.738zm0 0" fill="#fff"/><path d="M266.422 476.672l-20.125 20.125c-6.938 6.937-18.192 6.937-25.129 0l-42.754-42.754c-6.937-6.938-6.937-18.188 0-25.129l20.125-20.125c6.941-6.937 18.191-6.937 25.133 0l42.75 42.754c6.941 6.937 6.941 18.187 0 25.129zm0 0" fill="#ffc66c"/><path d="M173.875 393.86l-10.39 10.386a6.889 6.889 0 0 0 0 9.738l14.93 14.93 20.124-20.125-14.93-14.93a6.877 6.877 0 0 0-9.734 0zm0 0" fill="#fff"/><path d="M345.035 364.566l-43.234-26.644c-7.344-4.524-9.63-14.145-5.102-21.488l10.133-16.442c4.523-7.344 14.145-9.625 21.484-5.101l43.239 26.644c7.343 4.527 9.625 14.145 5.101 21.488l-10.133 16.442c-4.527 7.344-14.144 9.625-21.488 5.101zm0 0" fill="#ff5d5d"/><path d="M494.652 227.656C483.895 239.316 468.641 246 452.801 246c-15.836 0-31.094-6.684-41.852-18.344a9.994 9.994 0 0 0-14.695 0 57.475 57.475 0 0 1-16 12.14l-38.93-54.976L480.79 45.355c3.902-3.902 3.902-10.234 0-14.14-3.906-3.906-10.238-3.906-14.144 0l-139.81 139.808c-11.147-5.312-24.92-3.363-34.14 5.856l-62.777 62.777c-5.879-3.047-11.27-7.125-15.77-12a9.994 9.994 0 0 0-14.695 0C188.691 239.316 173.438 246 157.602 246c-15.84 0-31.094-6.684-41.852-18.344a10.009 10.009 0 0 0-7.352-3.219 10 10 0 0 0-7.347 3.22C90.293 239.316 75.039 246 59.199 246c-15.836 0-31.09-6.688-41.851-18.344-3.743-4.058-10.07-4.312-14.13-.566s-4.312 10.074-.566 14.133C17.188 256.969 37.797 266 59.2 266c18.016 0 35.461-6.395 49.203-17.805 13.739 11.41 31.188 17.805 49.2 17.805 18.011 0 35.46-6.395 49.199-17.805a78.78 78.78 0 0 0 8.465 6.114l-30.047 30.05c-11.7 11.696-11.7 30.727 0 42.426a29.838 29.838 0 0 0 10.48 6.793l132.762 94.004c7.246 5.133 15.613 7.648 23.941 7.648a41.338 41.338 0 0 0 29.274-12.16l50.437-50.441a41.31 41.31 0 0 0 4.516-53.215l-44.74-63.184a77.74 77.74 0 0 0 11.71-8.035C417.34 259.605 434.79 266 452.802 266c21.402 0 42.015-9.031 56.55-24.777 3.747-4.059 3.493-10.387-.566-14.133-4.062-3.742-10.387-3.492-14.133.566zM199.36 298.5l107.48-107.48c1.95-1.95 4.509-2.922 7.071-2.922s5.121.972 7.07 2.922c3.899 3.898 3.899 10.246 0 14.144L213.5 312.644a10.002 10.002 0 0 1-8.86 2.758l-6.1-4.32a10.43 10.43 0 0 0-.731-.465c-2.239-3.828-1.73-8.836 1.55-12.117zm218.614 59.988l-50.438 50.438a21.363 21.363 0 0 1-27.515 2.332l-115.485-81.77a30.566 30.566 0 0 0 3.11-2.703l107.48-107.48a30.015 30.015 0 0 0 3.316-3.95l81.868 115.618a21.363 21.363 0 0 1-2.336 27.515zM502 20c2.633 0 5.21-1.07 7.07-2.93 1.86-1.86 2.93-4.44 2.93-7.07s-1.07-5.21-2.93-7.07A10.073 10.073 0 0 0 502 0a10.08 10.08 0 0 0-7.07 2.93C493.07 4.79 492 7.37 492 10s1.07 5.21 2.93 7.07A10.08 10.08 0 0 0 502 20zM91.055 465.957H77.03c-5.523 0-10 4.48-10 10 0 5.523 4.477 10 10 10h14.024c5.523 0 10-4.477 10-10 0-5.52-4.477-10-10-10zM477 426.773h-9.594c-5.523 0-10 4.477-10 10 0 5.524 4.477 10 10 10H477c5.523 0 10-4.476 10-10 0-5.523-4.477-10-10-10zM406.95 492h-9.595c-5.523 0-10 4.48-10 10 0 5.523 4.477 10 10 10h9.594c5.524 0 10-4.477 10-10 0-5.52-4.476-10-10-10zM125.215 332.262l-10.39-10.39c-6.583-6.583-17.294-6.583-23.88 0l-9.18 9.183c-10.187-4.496-22.542-2.586-30.878 5.746l-42.75 42.758C2.89 384.8 0 391.773 0 399.19c0 7.418 2.89 14.391 8.133 19.637l20.125 20.125c5.414 5.414 12.523 8.121 19.637 8.121 7.109 0 14.222-2.707 19.636-8.12l42.75-42.755c5.246-5.242 8.133-12.219 8.133-19.637 0-3.94-.82-7.753-2.375-11.25l9.176-9.171c6.586-6.582 6.586-17.293 0-23.88zm-16.344 11.937l-5.656 5.66-5.985-5.984 5.657-5.656zm-12.73 37.86l-42.75 42.754c-3.032 3.027-7.961 3.027-10.989 0l-20.125-20.125A7.717 7.717 0 0 1 20 399.19c0-2.074.809-4.023 2.277-5.492l42.75-42.754c3.032-3.027 7.961-3.03 10.989 0L96.14 371.07a7.717 7.717 0 0 1 2.277 5.496 7.715 7.715 0 0 1-2.277 5.493zm134.601 19.656c-8.336-8.332-20.691-10.242-30.879-5.746l-9.18-9.184c-6.585-6.582-17.296-6.582-23.878 0l-10.39 10.39c-6.587 6.587-6.587 17.298 0 23.88l9.17 9.172a27.715 27.715 0 0 0-2.374 11.253c0 7.418 2.887 14.391 8.133 19.637l42.754 42.754c5.414 5.41 12.523 8.117 19.632 8.117 7.114 0 14.223-2.707 19.637-8.117l20.125-20.129c5.246-5.242 8.133-12.219 8.133-19.633 0-7.418-2.887-14.394-8.133-19.636zm-52 1.418l5.656 5.656-5.984 5.984-5.656-5.66zm80.61 66.469l-20.125 20.125c-3.028 3.027-7.957 3.027-10.989 0l-42.754-42.754a7.728 7.728 0 0 1-2.273-5.493 7.72 7.72 0 0 1 2.277-5.496l20.125-20.125c1.516-1.515 3.504-2.27 5.492-2.27s3.98.759 5.493 2.27l42.754 42.754a7.711 7.711 0 0 1 2.273 5.492 7.714 7.714 0 0 1-2.273 5.497zm0 0"/><path d="M333.563 286.375c-5.825-3.59-12.7-4.691-19.356-3.113-6.656 1.582-12.3 5.66-15.887 11.484l-10.132 16.442c-3.59 5.824-4.7 12.699-3.118 19.355 1.582 6.656 5.66 12.3 11.485 15.89l43.234 26.645c4.094 2.524 8.703 3.82 13.39 3.82 1.985 0 3.985-.234 5.966-.703 6.66-1.582 12.3-5.66 15.89-11.484l10.133-16.441c7.41-12.024 3.656-27.836-8.367-35.247zm34.582 51.398l-10.133 16.446a5.593 5.593 0 0 1-3.485 2.515 5.558 5.558 0 0 1-4.242-.683l-43.238-26.645a5.624 5.624 0 0 1-1.836-7.726l10.133-16.442a5.588 5.588 0 0 1 3.484-2.52 5.578 5.578 0 0 1 4.242.684l43.239 26.645a5.625 5.625 0 0 1 1.836 7.726zm0 0"/></svg>