<svg height="496pt" viewBox="0 0 496 496" width="496pt" xmlns="http://www.w3.org/2000/svg"><path d="M472 296v-64c0-53.016-42.984-96-96-96H216c-53.016 0-96 42.984-96 96v88c0 8.84-7.16 16-16 16H72v104h56c53.016 0 96-42.984 96-96v-88c0-8.84 7.16-16 16-16h104c8.84 0 16 7.16 16 16v40zm0 0" fill="#d9d7d8"/><path d="M240 240h104c8.84 0 16 7.16 16 16v40h88v-48c0-53.016-42.984-96-96-96H192c-14.504 0-28.2 3.305-40.52 9.063C132.184 178.625 120 203.855 120 232v88c0 8.84-7.16 16-16 16h-8c0 8.84-7.16 16-16 16h-8v88h56c14.504 0 28.2-3.313 40.52-9.063C187.816 413.375 200 388.145 200 360v-88c0-8.84 7.16-16 16-16h8c0-8.84 7.16-16 16-16zm0 0" fill="#efedee"/><path d="M344 296h144v32H344zM0 320h72v136H0m120-200h104v64H120zm152-120h64v104h-64zm-32 0v-32h128v32m-80-80h32v48h-32zm0 0" fill="#bab8b9"/><path d="M288 56h16v48h-16zm0 0" fill="#d9d7d8"/><path d="M208 24h192v32H208zm0 0" fill="#bab8b9"/><path d="M208 40h192v16H208zm0 0" fill="#d9d7d8"/><path d="M336 40c0 17.672-14.328 32-32 32s-32-14.328-32-32 14.328-32 32-32 32 14.328 32 32zm-112 0c0 13.254-10.746 24-24 24s-24-10.746-24-24 10.746-24 24-24 24 10.746 24 24zm208 0c0 13.254-10.746 24-24 24s-24-10.746-24-24 10.746-24 24-24 24 10.746 24 24zm0 0" fill="#ca5057"/><path d="M376 448c0 23.383 20.07 42.09 43.93 39.816 20.797-1.984 36.07-20.64 36.07-41.527v-1.633a71.99 71.99 0 0 0-10.945-38.16L416 360l-29.055 46.488A72.01 72.01 0 0 0 376 444.648zm-96-32c0 19.785 17.953 35.375 38.457 31.367C333.648 444.398 344 430.105 344 414.625v-3.297c0-7.45-1.734-14.8-5.063-21.465L312 336l-26.938 53.863A48.053 48.053 0 0 0 280 411.328zm0 0" fill="#85b6cf"/><path d="M440 446.281v-1.633a71.99 71.99 0 0 0-10.945-38.16L408 372.801l-21.055 33.687A72.01 72.01 0 0 0 376 444.648V448c0 19.2 13.535 35.215 31.586 39.09C426.457 483.367 440 465.902 440 446.28zM304 352l-18.938 37.863A48.053 48.053 0 0 0 280 411.328V416c0 14.855 10.129 27.352 23.855 30.953C318.258 443.383 328 429.61 328 414.625v-3.297c0-7.45-1.734-14.8-5.063-21.465zm0 0" fill="#94cce7"/><path d="M128 448H72v-16h56c48.52 0 88-39.48 88-88v-88c0-13.23 10.77-24 24-24h104c13.23 0 24 10.77 24 24v40h-16v-40c0-4.406-3.586-8-8-8H240c-4.414 0-8 3.594-8 8v88c0 57.344-46.656 104-104 104zm0 0"/><path d="M104 344H72v-16h32c4.414 0 8-3.594 8-8v-88c0-57.344 46.656-104 104-104h160c57.344 0 104 46.656 104 104v64h-16v-64c0-48.52-39.48-88-88-88H216c-48.52 0-88 39.48-88 88v88c0 13.23-10.77 24-24 24zM304 80c-22.055 0-40-17.945-40-40s17.945-40 40-40 40 17.945 40 40-17.945 40-40 40zm0-64c-13.23 0-24 10.77-24 24s10.77 24 24 24 24-10.77 24-24-10.77-24-24-24zM200 72c-17.648 0-32-14.352-32-32s14.352-32 32-32 32 14.352 32 32-14.352 32-32 32zm0-48c-8.824 0-16 7.176-16 16s7.176 16 16 16 16-7.176 16-16-7.176-16-16-16zm0 0"/><path d="M488 336H344c-4.426 0-8-3.586-8-8v-32c0-4.414 3.574-8 8-8h144c4.426 0 8 3.586 8 8v32c0 4.414-3.574 8-8 8zm-136-16h128v-16H352zM216 16h64v16h-64zm0 32h64v16h-64zm192 24c-17.648 0-32-14.352-32-32s14.352-32 32-32 32 14.352 32 32-14.352 32-32 32zm0-48c-8.824 0-16 7.176-16 16s7.176 16 16 16 16-7.176 16-16-7.176-16-16-16zm0 0"/><path d="M328 48h64v16h-64zm0-32h64v16h-64zm48 120h-16v-24H248v24h-16v-32c0-4.414 3.574-8 8-8h128c4.426 0 8 3.586 8 8zm0 0"/><path d="M280 64h16v40h-16zm32 0h16v40h-16zm-48 72h16v104h-16zm64 0h16v104h-16zM120 312h104v16H120zm0-64h104v16H120zM72 464H0v-16h64V328H0v-16h72c4.426 0 8 3.586 8 8v136c0 4.414-3.574 8-8 8zm288-208h112v16H360zm56.113 239.992c-11.937 0-23.539-4.426-32.394-12.472A48.08 48.08 0 0 1 368 448v-3.352c0-15.015 4.2-29.671 12.168-42.402l29.055-46.484c2.922-4.684 10.64-4.684 13.562 0l29.055 46.484a79.852 79.852 0 0 1 12.168 42.402v1.633c0 25.438-19.024 47.176-43.313 49.496a48.73 48.73 0 0 1-4.582.215zM416 375.098l-22.273 35.629A63.984 63.984 0 0 0 384 444.648V448c0 9 3.824 17.633 10.488 23.68 6.758 6.144 15.567 9.03 24.688 8.168 16.16-1.543 28.824-16.29 28.824-33.567v-1.633a63.984 63.984 0 0 0-9.727-33.921zm-103.937 80.894c-9.27 0-18.254-3.16-25.477-9.105C277.312 439.257 272 428 272 416v-4.664a56.327 56.327 0 0 1 5.91-25.047l26.93-53.863c2.719-5.426 11.594-5.426 14.312 0l26.926 53.863A56.157 56.157 0 0 1 352 411.336v3.297c0 19.902-13.465 36.976-32.016 40.59-2.64.511-5.296.77-7.921.77zM312 353.887l-19.777 39.554A40.28 40.28 0 0 0 288 411.336V416a23.906 23.906 0 0 0 8.762 18.535c5.629 4.649 12.789 6.41 20.168 4.985 10.87-2.13 19.07-12.832 19.07-24.895v-3.297a40.27 40.27 0 0 0-4.223-17.887zm0 0"/></svg>