<svg xmlns="http://www.w3.org/2000/svg" xmlns:xlink="http://www.w3.org/1999/xlink" width="800" height="800"><path d="M446.607 388.777l-14.266-.063-.093 27.149-6.191-.026.106-32.595 20.465.071zm-37.956 16.029c.02-4.47 3.238-6.384 6.178-6.367 3.63.01 5.613 2.137 5.613 2.137l.021-5.498s-1.897-1.596-6.304-1.615c-7.22-.023-11.471 5.295-11.49 11.33-.023 6.028 3.905 11.384 11.41 11.403 4.393.021 6.517-1.565 6.517-1.565l.02-5.495s-2.203 2.104-5.826 2.098c-2.94-.008-6.152-2.271-6.139-6.428m41.022 2.842l.054-13.649-5.873-.02-.074 21.917 5.86.021 10.033-13.567-.046 13.607 5.872.02.08-21.912-5.873-.026zM394.6 393.797c-1.075 3.752-2.896 10.465-5.275 15.71-2.591-4.934-4.565-10.847-5.65-15.747l-6.105-.029c1.397 7.066 5.315 15.883 9.041 21.961-.537 1.506-2.873 6.549-4.18 8.785l6.347.027c5.468-11.188 10.315-23.116 12.14-30.678l-6.318-.029zm-32.741 5.789c-1.175-.003-1.835-.126-1.835-.126l.043-11.45s.899-.162 2.074-.155c4.243.013 7.209 1.944 7.189 6.012-.009 3.752-2.703 5.737-7.471 5.719m.425-17.104c-5.256-.02-8.395.744-8.395.744l-.109 32.346 6.185.02.04-10.79s1.104.166 2.359.166c7.501.03 13.265-4.064 13.285-11.154.029-8.146-6.885-11.311-13.365-11.332m146.733 29.095c-1.944-.014-2.926-.505-2.926-.505l.046-11.731s1.181-.567 3.55-.554c2.521.006 6.105 1.565 6.085 6.25-.02 4.722-2.793 6.553-6.755 6.54m.683-17.764c-5.621-.026-9.416 1.553-9.416 1.553l-.113 29.535 5.873.021.026-8.959s1.38.578 3.411.578c8.526.033 12.256-4.924 12.275-11.609.028-6.838-5.095-11.099-12.056-11.119m-23.609 17.512l-7.545-.026c1.313-3.252 1.864-7.777 2.083-12.293l5.501.014-.039 12.305zm5.918-17.17l-16.257-.06c-.014 2.684-.365 12.097-3.146 17.017h-2.939l-.04 9.284 5.375.02.033-4.406 15.023.053-.014 4.406 5.375.014.033-9.29h-3.504l.061-17.038zm44.472 17.515c-3.623-.014-5.441-3.198-5.441-6.373.021-3.226 1.858-6.434 5.495-6.414 3.623.01 5.435 3.235 5.428 6.453-.013 3.182-1.864 6.348-5.482 6.334m.067-17.768c-7.578-.02-11.473 5.671-11.492 11.328-.014 5.696 3.828 11.39 11.406 11.41 7.585.026 11.474-5.621 11.493-11.328.021-5.66-3.835-11.379-11.407-11.41" fill="#A9A9A9"/><defs><path id="a" d="M273.933 429.102l2.542 7.611s7.704 6.861 21.696 6.583c14.001-.278 4.516-2.448 4.516-2.448s-4.042-6.384-9.688-8.447c-5.63-2.07-13.991-8.461-13.991-8.461l-5.075 5.162z"/></defs><use xlink:href="#a" overflow="visible" fill="#A9A9A9"/><clipPath id="b"><use xlink:href="#a" overflow="visible"/></clipPath><path clip-path="url(#b)" fill="#A9A9A9" d="M273.933 423.939h38.238v19.635h-38.238z"/><defs><path id="c" d="M265.572 379.41c-13.242 9.871.474 19.636.474 19.636s18.222 8.643 23.397 10.899c5.163 2.256 20.754 9.296 27.983 14.08 7.236 4.805 5.079 10.252 5.079 10.252s9.387-4.89 14.47-11.273c5.069-6.396 4.595-12.502 4.028-13.908-.558-1.407.385-5.727-30.524-17.851-30.906-12.113-32.223-19.628-32.223-19.628l-12.684 7.793z"/></defs><use xlink:href="#c" overflow="visible" fill="#A9A9A9"/><clipPath id="d"><use xlink:href="#c" overflow="visible"/></clipPath><path clip-path="url(#d)" fill="#A9A9A9" d="M252.33 371.617h89.715v62.66H252.33z"/><defs><path id="e" d="M298.17 361.467c8.543 8.361 21.513 13.435 21.513 13.435s3.859-.66 4.698-1.692c.85-1.038 7.794-.75.657-7.707-7.137-6.951-23.862-7.419-23.862-7.419s-4.596.846-3.006 3.383"/></defs><use xlink:href="#e" overflow="visible" fill="#A9A9A9"/><clipPath id="f"><use xlink:href="#e" overflow="visible"/></clipPath><path clip-path="url(#f)" fill="#A9A9A9" d="M296.58 358.083h35.595v16.818H296.58z"/><defs><path id="g" d="M321.282 373.119c-23.295 15.027-44.719 15.306-62.95 33.342 0 12.31 13.162 27.718 18.334 30.531 0 0-3.676-4.698 3.563-9.383 7.23-4.698 25.554-12.502 31.566-14.758 6.012-2.257 19.629-8.354 23.103-11.082 3.483-2.724 5.458-3.573 7.521-8.079-2.167-13.623-9.111-23.302-18.626-29.466 0 .001 4.028 4.788-2.511 8.895"/></defs><use xlink:href="#g" overflow="visible" fill="#A9A9A9"/><clipPath id="h"><use xlink:href="#g" overflow="visible"/></clipPath><path clip-path="url(#h)" fill="#A9A9A9" d="M258.332 364.225h84.088v72.768h-84.088z"/><defs><path id="i" d="M316.017 433.144c-13.361 5.958-15.966 8.175-17.472 9.953.192.85 1.125.664 2.166.664 1.032 0 11.367-.843 20.289-5.448 8.918-4.599 14.94-10.995 19.174-20.949 0-.001-10.256 9.581-24.157 15.78"/></defs><use xlink:href="#i" overflow="visible" fill="#A9A9A9"/><clipPath id="j"><use xlink:href="#i" overflow="visible"/></clipPath><path clip-path="url(#j)" fill="#A9A9A9" d="M298.545 417.363h41.629v26.583h-41.629z"/><defs><path id="k" d="M260.409 385.516s8.716-9.719 20.57-15.033c12.595-5.634 25.369-12.588 21.706-12.682-.252-.003-.607-.01-1.065-.01-6.274 0-31.058 1.447-41.211 27.725"/></defs><use xlink:href="#k" overflow="visible" fill="#A9A9A9"/><clipPath id="l"><use xlink:href="#k" overflow="visible"/></clipPath><path clip-path="url(#l)" fill="#A9A9A9" d="M260.409 357.791h45.939v27.725h-45.939z"/></svg>