<svg width="129" height="129" xmlns="http://www.w3.org/2000/svg">

 <g>
  <title>background</title>
  <rect fill="none" id="canvas_background" height="402" width="582" y="-1" x="-1"/>
 </g>
 <g>
  <title>Layer 1</title>
  <g id="svg_1" fill="#fff">
   <path fill="#ff3702" id="svg_2" d="m64.5,122.6c32,0 58.1,-26 58.1,-58.1s-26,-58 -58.1,-58s-58,26 -58,58s26,58.1 58,58.1zm0,-108c27.5,0 49.9,22.4 49.9,49.9s-22.4,49.9 -49.9,49.9s-49.9,-22.4 -49.9,-49.9s22.4,-49.9 49.9,-49.9z"/>
   <path fill="#ff3702" id="svg_3" d="m70,93.5c0.8,0.8 1.8,1.2 2.9,1.2c1,0 2.1,-0.4 2.9,-1.2c1.6,-1.6 1.6,-4.2 0,-5.8l-23.5,-23.5l23.5,-23.5c1.6,-1.6 1.6,-4.2 0,-5.8s-4.2,-1.6 -5.8,0l-26.4,26.4c-0.8,0.8 -1.2,1.8 -1.2,2.9s0.4,2.1 1.2,2.9l26.4,26.4z"/>
  </g>
 </g>
</svg>