<svg height="512pt" viewBox="0 0 512 512" width="512pt" xmlns="http://www.w3.org/2000/svg"><path d="M437.02 74.98C388.668 26.63 324.379 0 256 0S123.332 26.629 74.98 74.98C26.63 123.332 0 187.621 0 256s26.629 132.668 74.98 181.02C123.332 485.37 187.621 512 256 512s132.668-26.629 181.02-74.98C485.37 388.668 512 324.379 512 256s-26.629-132.668-74.98-181.02zM482 256c0 25.078-4.113 49.21-11.688 71.773l-35.925-20.742a44.82 44.82 0 0 0-19.649-5.949C418.816 286.746 421 271.625 421 256c0-77.082-53.133-141.98-124.7-160.012A44.684 44.684 0 0 0 301 76V34.508C404.133 55.426 482 146.789 482 256zm-367.395 93.883a14.898 14.898 0 0 1-6.992 9.105l-39.34 22.715a226.576 226.576 0 0 1-15.035-25.96l39.375-22.735c3.469-2 7.512-2.535 11.383-1.496a14.9 14.9 0 0 1 9.11 6.988 14.908 14.908 0 0 1 1.5 11.383zM121 256c0-74.438 60.563-135 135-135s135 60.563 135 135-60.563 135-135 135-135-60.563-135-135zm277.895 82.5a14.9 14.9 0 0 1 9.109-6.988 14.895 14.895 0 0 1 11.383 1.5l39.375 22.73a225.697 225.697 0 0 1-15.04 25.961l-39.34-22.71a14.914 14.914 0 0 1-6.987-9.11 14.908 14.908 0 0 1 1.5-11.383zM271 30.512V76c0 8.27-6.73 15-15 15s-15-6.73-15-15V30.512c4.96-.328 9.96-.512 15-.512s10.04.184 15 .512zm-60 3.996V76a44.67 44.67 0 0 0 4.7 19.988C144.132 114.02 91 178.918 91 256c0 15.625 2.184 30.746 6.262 45.082a44.82 44.82 0 0 0-19.649 5.95l-35.925 20.741C34.112 305.211 30 281.078 30 256c0-109.21 77.867-200.574 181-221.492zM256 482c-67.273 0-127.762-29.555-169.2-76.352l35.813-20.675c6.14-3.547 11.239-8.383 15.035-14.13C167.652 401.759 209.618 421 256 421s88.348-19.242 118.352-50.156a44.786 44.786 0 0 0 15.035 14.125l35.812 20.68C383.762 452.444 323.273 482 256 482zm0 0" fill="#fff"/><path d="M256 361c41.906 0 76-34.094 76-76a75.806 75.806 0 0 0-11.406-40.043L256 140.473l-64.57 104.453A75.795 75.795 0 0 0 180 285c0 41.906 34.094 76 76 76zm-39.074-100.27L256 197.527l39.094 63.235A45.862 45.862 0 0 1 302 285c0 25.363-20.637 46-46 46s-46-20.637-46-46a45.893 45.893 0 0 1 6.926-24.27zm0 0" fill="#fff"/></svg>