<svg width="513" height="423" fill="none" xmlns="http://www.w3.org/2000/svg"><path d="M10.326 369.297c7.78 0 11.155 1.701 15.823 4.056 5.537 2.792 12.428 6.267 25.119 6.267 12.691 0 19.582-3.475 25.119-6.267 4.669-2.354 8.043-4.056 15.825-4.056s11.156 1.701 15.826 4.056c5.537 2.792 12.428 6.267 25.12 6.267s19.583-3.475 25.12-6.266c4.67-2.355 8.044-4.057 15.827-4.057 7.781 0 11.155 1.701 15.825 4.056 5.537 2.792 12.429 6.267 25.12 6.267s19.581-3.475 25.118-6.267c4.669-2.354 8.043-4.056 15.822-4.056 7.781 0 11.155 1.701 15.826 4.056 5.537 2.792 12.428 6.267 25.12 6.267 12.693 0 19.584-3.475 25.121-6.267 4.67-2.354 8.044-4.056 15.826-4.056s11.157 1.701 15.827 4.057c5.537 2.791 12.429 6.266 25.121 6.266 12.692 0 19.584-3.475 25.121-6.266 4.67-2.355 8.044-4.057 15.827-4.057 7.783 0 11.159 1.701 15.829 4.057 5.538 2.791 12.43 6.266 25.123 6.266 12.694 0 19.586-3.475 25.124-6.266 4.67-2.355 8.045-4.057 15.829-4.057 5.7 0 10.323-4.622 10.323-10.323 0-5.701-4.622-10.323-10.323-10.323-.5 0-.974.014-1.455.025V10.323c0-5.7-4.622-10.323-10.323-10.323h-41.29c-5.7 0-10.323 4.622-10.323 10.323v22.71H76.999v-22.71C76.999 4.623 72.378 0 66.676 0h-41.29c-5.701 0-10.323 4.622-10.323 10.323v338.504a62.346 62.346 0 0 0-4.738-.177c-5.701 0-10.322 4.623-10.322 10.323s4.621 10.324 10.323 10.324zm141.72-61.831c-2.358-4.352-3.914-7.227-3.914-14.137 0-6.909 1.558-9.784 3.914-14.134 2.855-5.269 6.408-11.827 6.408-23.97 0-12.143-3.553-18.7-6.408-23.97-2.358-4.351-3.914-7.226-3.914-14.135s1.558-9.785 3.914-14.135c1.916-3.535 4.146-7.652 5.406-13.646h30.006c-.557 1.239-1.215 2.453-1.951 3.811-2.855 5.269-6.408 11.827-6.408 23.97 0 12.143 3.553 18.7 6.408 23.97 2.358 4.351 3.914 7.226 3.914 14.135s-1.558 9.785-3.914 14.135c-2.855 5.269-6.408 11.827-6.408 23.969 0 12.143 3.553 18.701 6.407 23.972 2.358 4.352 3.915 7.227 3.915 14.138s-1.558 9.785-3.914 14.137a97.682 97.682 0 0 0-1.981 3.814c-2.752-.457-5.851-.74-9.422-.74-9.525 0-15.782 1.957-20.653 4.114 2.495-4.866 5.003-11.121 5.003-21.325.001-12.144-3.552-18.702-6.408-23.973zm167.743 0c-2.358-4.352-3.915-7.227-3.915-14.137 0-6.909 1.558-9.784 3.914-14.134 2.855-5.269 6.408-11.827 6.408-23.97 0-12.143-3.553-18.7-6.408-23.97-2.357-4.351-3.914-7.226-3.914-14.135s1.558-9.785 3.915-14.135c1.915-3.535 4.146-7.652 5.405-13.646H355.2c-.556 1.239-1.215 2.453-1.951 3.811-2.855 5.269-6.408 11.827-6.408 23.97 0 12.143 3.553 18.7 6.408 23.97 2.357 4.351 3.914 7.226 3.914 14.135s-1.558 9.785-3.915 14.135c-2.854 5.269-6.407 11.827-6.407 23.969 0 12.143 3.552 18.701 6.407 23.972 2.358 4.352 3.915 7.227 3.915 14.138s-1.558 9.785-3.915 14.137c-.758 1.399-1.564 2.894-2.34 4.557-3.57-.888-7.802-1.482-13.028-1.482-6.635 0-11.676.954-15.776 2.259 2.159-4.603 4.092-10.516 4.092-19.47.001-12.145-3.551-18.703-6.407-23.974zm47.698-138.771h-51.613c-5.7 0-10.323 4.622-10.323 10.323 0 6.909-1.558 9.784-3.914 14.134a179.59 179.59 0 0 0-1 1.866h-7.473v-41.29h92.903v41.29h-10.892c1.501-4.068 2.634-9.143 2.634-16 0-5.702-4.622-10.323-10.322-10.323zm-167.742 0h-51.613c-5.701 0-10.323 4.622-10.323 10.323 0 6.909-1.558 9.784-3.914 14.134a179.59 179.59 0 0 0-1 1.866h-7.473v-41.29h92.903v41.29h-10.892c1.501-4.068 2.634-9.143 2.634-16 .001-5.702-4.621-10.323-10.322-10.323zm259.19-148.05h20.645V353.43a133.017 133.017 0 0 0-3.022 1.487c-4.67 2.355-8.046 4.057-15.83 4.057a46.33 46.33 0 0 1-1.793-.037V20.645zm-20.646 33.032v22.114h-82.501c-5.7 0-10.323 4.622-10.323 10.323 0 5.7 4.622 10.323 10.323 10.323h82.501v255.44c-4.554-1.777-10.323-3.226-18.514-3.226-12.692 0-19.584 3.475-25.121 6.266-4.67 2.355-8.044 4.057-15.827 4.057-3.717 0-6.425-.391-8.753-1.054.406-.806.849-1.627 1.325-2.508 2.855-5.27 6.407-11.828 6.407-23.972 0-12.144-3.552-18.702-6.407-23.973-2.358-4.352-3.915-7.227-3.915-14.137 0-6.909 1.558-9.784 3.914-14.134 2.855-5.269 6.408-11.827 6.408-23.97 0-12.143-3.553-18.7-6.408-23.97-2.357-4.351-3.914-7.226-3.914-14.135 0-.51.011-.991.028-1.459h28.876c5.7 0 10.323-4.622 10.323-10.323v-61.935c0-5.7-4.622-10.323-10.323-10.323H282.842c-5.7 0-10.323 4.622-10.323 10.323v61.935c0 5.7 4.622 10.323 10.323 10.323h12.414c-.011.482-.027.958-.027 1.459 0 12.143 3.553 18.7 6.408 23.97 2.357 4.351 3.914 7.226 3.914 14.135s-1.558 9.785-3.915 14.135c-2.854 5.269-6.407 11.827-6.407 23.969 0 12.143 3.552 18.701 6.407 23.972 2.358 4.352 3.915 7.227 3.915 14.138s-1.558 9.785-3.915 14.137c-1.887 3.483-4.072 7.54-5.341 13.388-7.322-.093-10.648-1.759-15.186-4.047-5.537-2.791-12.428-6.266-25.119-6.266-12.691 0-19.581 3.475-25.118 6.267-4.669 2.354-8.043 4.056-15.822 4.056-5.607 0-8.925-.887-12.089-2.261.225-.423.457-.854.7-1.302 2.855-5.27 6.408-11.828 6.408-23.972 0-12.144-3.553-18.702-6.408-23.973-2.358-4.352-3.914-7.227-3.914-14.137 0-6.909 1.558-9.784 3.914-14.134 2.855-5.269 6.408-11.827 6.408-23.97 0-12.143-3.553-18.7-6.408-23.97-2.358-4.351-3.914-7.226-3.914-14.135 0-.51.011-.991.028-1.459h28.873c5.701 0 10.323-4.622 10.323-10.323v-61.935c0-5.7-4.621-10.323-10.323-10.323H115.1c-5.701 0-10.323 4.622-10.323 10.323v61.935c0 5.7 4.621 10.323 10.323 10.323h12.414c-.011.482-.027.958-.027 1.459 0 12.143 3.553 18.7 6.408 23.97 2.358 4.351 3.914 7.226 3.914 14.135s-1.558 9.785-3.914 14.135c-2.855 5.269-6.408 11.827-6.408 23.969 0 12.143 3.553 18.701 6.407 23.972 2.358 4.352 3.915 7.227 3.915 14.138s-1.558 9.785-3.914 14.137c-1.861 3.436-4.014 7.432-5.29 13.156-4.769-.545-7.63-1.979-11.272-3.814-5.537-2.792-12.428-6.267-25.12-6.267-6.33 0-11.217.865-15.212 2.078V96.437h180.645c5.7 0 10.323-4.622 10.323-10.323 0-5.7-4.622-10.323-10.323-10.323H77V53.677h361.289zM56.354 20.645v338.027c-1.48.195-3.146.301-5.086.301-7.631 0-11.027-1.639-15.559-3.923V20.645h20.645zM501.68 391.589c-12.693 0-19.585 3.475-25.123 6.266-4.67 2.355-8.046 4.057-15.83 4.057-7.784 0-11.159-1.701-15.829-4.057-5.538-2.791-12.43-6.266-25.123-6.266-12.692 0-19.584 3.475-25.121 6.266-4.67 2.355-8.044 4.057-15.827 4.057-7.783 0-11.157-1.701-15.827-4.057-5.537-2.791-12.429-6.266-25.121-6.266-12.692 0-19.583 3.475-25.12 6.266-4.67 2.355-8.044 4.057-15.827 4.057-7.781 0-11.156-1.701-15.826-4.057-5.537-2.791-12.428-6.266-25.119-6.266-12.691 0-19.581 3.475-25.118 6.267-4.669 2.354-8.043 4.056-15.822 4.056-7.781 0-11.156-1.701-15.826-4.057-5.537-2.791-12.428-6.266-25.119-6.266-12.692 0-19.583 3.475-25.12 6.266-4.67 2.355-8.044 4.057-15.827 4.057-7.781 0-11.156-1.701-15.826-4.056-5.537-2.792-12.428-6.267-25.12-6.267-12.691 0-19.582 3.475-25.119 6.267-4.669 2.354-8.043 4.056-15.825 4.056-7.78 0-11.155-1.701-15.823-4.056-5.537-2.792-12.428-6.267-25.119-6.267C4.622 391.589 0 396.211 0 401.912c0 5.701 4.621 10.323 10.323 10.323 7.78 0 11.155 1.701 15.823 4.056 5.537 2.792 12.428 6.267 25.119 6.267 12.691 0 19.582-3.475 25.119-6.267 4.669-2.354 8.043-4.056 15.825-4.056s11.156 1.701 15.826 4.056c5.537 2.792 12.428 6.267 25.12 6.267s19.583-3.475 25.12-6.266c4.67-2.355 8.044-4.057 15.827-4.057 7.781 0 11.155 1.701 15.825 4.056 5.537 2.792 12.429 6.267 25.12 6.267s19.581-3.475 25.118-6.267c4.669-2.354 8.043-4.056 15.822-4.056 7.781 0 11.155 1.701 15.826 4.056 5.537 2.792 12.428 6.267 25.12 6.267 12.693 0 19.584-3.475 25.121-6.267 4.67-2.354 8.044-4.056 15.826-4.056s11.157 1.701 15.827 4.057c5.537 2.791 12.429 6.266 25.121 6.266 12.692 0 19.584-3.475 25.121-6.266 4.67-2.355 8.044-4.057 15.827-4.057 7.783 0 11.159 1.701 15.829 4.057 5.538 2.791 12.43 6.266 25.123 6.266 12.694 0 19.586-3.475 25.124-6.266 4.67-2.355 8.045-4.057 15.829-4.057 5.7 0 10.323-4.622 10.323-10.323 0-5.701-4.623-10.323-10.324-10.323z" fill="#fff"/><path d="M304.175 96.437h3.097c5.7 0 10.323-4.622 10.323-10.323 0-5.7-4.622-10.323-10.323-10.323h-3.097c-5.7 0-10.323 4.622-10.323 10.323.001 5.7 4.623 10.323 10.323 10.323z" fill="#fff"/></svg>